<svg width="197" height="52" viewBox="0 0 197 52" fill="none" xmlns="http://www.w3.org/2000/svg">
<path d="M45.7423 19.6637C47.4872 18.6793 48.1113 16.4685 47.1312 14.7237C46.1598 12.9788 43.9404 12.3547 42.2043 13.326L30.4299 19.7648C30.131 19.9319 29.7399 19.8264 29.5685 19.5231C29.4586 19.3253 29.485 19.1319 29.5158 19.0396C29.5377 18.943 29.6168 18.7715 29.819 18.6573L42.6921 11.3351L41.211 8.73318L29.5377 15.3742L29.6915 3.67884C29.7003 2.70753 29.3399 1.79335 28.6631 1.09893C27.9863 0.404503 27.0721 0.00894538 26.1096 0.000155214C25.1383 -0.00863495 24.2241 0.356157 23.5296 1.03739C22.8352 1.71424 22.4485 2.61962 22.4353 3.57775L22.1232 16.9871C22.1189 17.3388 21.8332 17.62 21.4816 17.6112C21.13 17.6025 20.8487 17.3212 20.8575 16.9652L20.9585 2.15814L17.9567 2.13617L17.8732 15.5543L7.81729 9.58143C6.09443 8.56178 3.86613 9.12874 2.84648 10.8472C1.82243 12.5701 2.38941 14.8072 4.09909 15.8181L15.5658 22.7887C15.7592 22.9029 15.8339 23.0831 15.8559 23.1798C15.8823 23.2765 15.9042 23.4655 15.7855 23.6589C15.6053 23.9577 15.2186 24.0588 14.9109 23.8742L2.13011 16.3894L0.618202 18.9737L12.1948 25.7597L2.00263 31.4777C1.15438 31.9524 0.543481 32.7303 0.284173 33.6665C0.0204687 34.5982 0.139131 35.5783 0.609403 36.4266C1.08407 37.2661 1.86199 37.8814 2.79814 38.1451C3.72989 38.4044 4.70999 38.2857 5.54065 37.8198L17.3106 31.381C17.5084 31.2712 17.7018 31.2975 17.7941 31.3239C17.8908 31.3503 18.0622 31.425 18.1721 31.6228C18.3435 31.926 18.2336 32.3172 17.9259 32.4886L5.05281 39.8108L6.53394 42.4171L18.1985 35.7849L18.0578 47.4758C18.0314 49.4141 19.5433 51.0227 21.464 51.1413C21.5211 51.1457 21.5783 51.1501 21.6442 51.1501C23.6395 51.1721 25.2921 49.5635 25.3184 47.5813L25.6217 34.1675C25.6261 33.8159 25.9162 33.5346 26.2634 33.5434C26.6018 33.5258 26.8963 33.8335 26.8875 34.1895L26.7908 48.9965L29.7882 49.0185L29.8761 35.6047L39.9277 41.5688C40.4331 41.8677 40.9912 42.0347 41.5582 42.0743C41.9318 42.0962 42.3098 42.0567 42.6789 41.9644C43.6195 41.7271 44.4062 41.1337 44.9072 40.3031C45.9269 38.5802 45.3599 36.3431 43.6503 35.3366L32.1835 28.3616C31.8847 28.1814 31.788 27.7947 31.9638 27.4958C32.0868 27.3024 32.2583 27.2277 32.3549 27.2057C32.4516 27.1793 32.6406 27.1574 32.8428 27.2804L45.6148 34.7653L47.1356 32.1809L35.5546 25.3949L45.7511 19.6769L45.7423 19.6637ZM30.9265 24.5379C30.2849 24.8499 29.7487 25.3334 29.3795 25.9575C28.3555 27.676 28.9268 29.9087 30.6321 30.9239L42.0988 37.8945C42.2966 38.0176 42.3669 38.189 42.3889 38.2857C42.4153 38.3824 42.4372 38.5714 42.3186 38.7648C42.2043 38.9626 42.0285 39.0329 41.9274 39.0592C41.8395 39.0812 41.6417 39.1032 41.4439 38.9845L28.3115 31.192C27.7313 30.7877 27.0325 30.546 26.2898 30.5328C24.2856 30.5108 22.6419 32.1194 22.6155 34.106L22.3122 47.5154C22.3078 47.867 22.0178 48.1483 21.6705 48.1395C21.3189 48.1351 21.0377 47.8494 21.0465 47.4934L21.231 32.2073C21.2398 32.1062 21.2398 32.0095 21.2398 31.9084C21.2398 31.3107 21.0948 30.7042 20.7784 30.146C20.3037 29.2978 19.5345 28.6912 18.5984 28.4275C17.6623 28.1638 16.6866 28.2869 15.8559 28.7484L4.08149 35.1916C3.88371 35.3014 3.69034 35.2707 3.60244 35.2443C3.50575 35.2179 3.33434 35.1432 3.22007 34.9498C3.1102 34.7521 3.14096 34.5587 3.16733 34.4664C3.1937 34.3741 3.26842 34.1983 3.47059 34.084L16.7964 26.6036H16.792C17.4249 26.3003 17.9787 25.8257 18.3654 25.1796C18.8577 24.3489 19.0027 23.3732 18.761 22.4283C18.5193 21.4877 17.9303 20.701 17.1085 20.2087L5.64176 13.2381C5.34289 13.0579 5.24181 12.6712 5.422 12.3723C5.53628 12.1745 5.71645 12.1042 5.81314 12.0778C5.90984 12.0559 6.09884 12.0295 6.29662 12.1526L19.4378 19.9582C19.9696 20.323 20.5938 20.5516 21.2706 20.5911C21.3321 20.5955 21.3937 20.5999 21.4508 20.5999C23.4549 20.6219 25.1031 19.0133 25.1251 17.0311L25.4371 3.61291C25.4371 3.38876 25.5602 3.23933 25.6261 3.1734C25.7008 3.10308 25.8459 2.98881 26.0788 2.9932C26.2986 2.98881 26.4524 3.11627 26.5183 3.18219C26.5842 3.24812 26.7029 3.40195 26.7029 3.63928L26.5051 18.9474H26.5095C26.4568 19.6506 26.615 20.3582 26.9666 20.9867C27.9423 22.7315 30.1618 23.3556 31.8979 22.3843L43.6678 15.9455C43.9711 15.7741 44.3579 15.884 44.5293 16.1872C44.6963 16.4905 44.5908 16.8773 44.2832 17.0487L30.9353 24.5335L30.9265 24.5379Z" fill="#29ABE2"/>
<path d="M67.6219 28.2148H68.6064L71.1951 35.4096H70.1798L69.5425 33.5812H66.6945L66.0573 35.4096H65.042L67.6219 28.2148ZM69.2876 32.7462L68.1273 29.3839H68.1054L66.9626 32.7462H69.2832H69.2876Z" fill="#231F20"/>
<path d="M72.7378 28.2144H77.045L78.2053 29.3747V34.2444L77.045 35.4047H72.7378V28.21V28.2144ZM76.5835 34.5433L77.2208 33.906V29.7131L76.5835 29.0758H73.7267V34.5433H76.5835Z" fill="#231F20"/>
<path d="M79.541 28.2168H80.5607L82.5868 34.2293H82.6088L84.6349 28.2168H85.6502L83.101 35.4115H82.0945L79.5454 28.2168H79.541Z" fill="#231F20"/>
<path d="M88.327 28.2158H89.3115L91.9002 35.4106H90.8849L90.2476 33.5822H87.3996L86.7623 35.4106H85.7471L88.327 28.2158ZM89.9927 32.7471L88.8324 29.3849H88.8104L87.6677 32.7471H89.9883H89.9927Z" fill="#231F20"/>
<path d="M93.4473 28.2168H94.3702L97.9346 33.7854H97.9566V28.2168H98.9016V35.4115H97.9786L94.4142 29.843H94.3922V35.4115H93.4473V28.2168Z" fill="#231F20"/>
<path d="M100.958 34.2591V29.3673L102.11 28.2158H105.336L106.444 29.3278V30.1409H105.459V29.6794L104.861 29.0816H102.58L101.943 29.7189V33.9118L102.58 34.5491H104.861L105.459 33.9514V33.4899H106.444V34.303L105.336 35.415H102.11L100.958 34.2635V34.2591Z" fill="#231F20"/>
<path d="M108.246 28.2144H113.076V29.0758H109.234V31.3656H112.781V32.2183H109.234V34.5433H113.076V35.4047H108.246V28.21V28.2144Z" fill="#231F20"/>
<path d="M114.926 28.2158H115.923L118.174 33.4767H118.196L120.459 28.2158H121.457V35.4106H120.512V30.1584H120.49L118.539 34.5975H117.84L115.897 30.1584H115.875V35.4106H114.93V28.2158H114.926Z" fill="#231F20"/>
<path d="M123.606 28.2144H128.436V29.0758H124.595V31.3656H128.142V32.2183H124.595V34.5433H128.436V35.4047H123.606V28.21V28.2144Z" fill="#231F20"/>
<path d="M130.287 28.2168H131.21L134.774 33.7854H134.796V28.2168H135.741V35.4115H134.818L131.254 29.843H131.232V35.4115H130.287V28.2168Z" fill="#231F20"/>
<path d="M139.555 29.0685H137.389V28.2158H142.711V29.0685H140.544V35.4106H139.555V29.0685Z" fill="#231F20"/>
<path d="M147.471 34.2581V29.3664L148.623 28.2148H152.016L153.167 29.3664V34.2581L152.016 35.4096H148.623L147.471 34.2581ZM151.541 34.5438L152.178 33.9065V29.7136L151.541 29.0763H149.093L148.456 29.7136V33.9065L149.093 34.5438H151.541Z" fill="#231F20"/>
<path d="M155.22 28.2144H159.949V29.0758H156.209V31.4623H159.457V32.3238H156.209V35.4047H155.22V28.21V28.2144Z" fill="#231F20"/>
<path d="M65.6577 39.1768H66.6422V42.35H70.1363V39.1768H71.1208V46.3715H70.1363V43.2158H66.6422V46.3715H65.6577V39.1768Z" fill="#231F20"/>
<path d="M73.2827 39.1753H78.1129V40.0367H74.2716V42.3266H77.8184V43.1792H74.2716V45.5042H78.1129V46.3656H73.2827V39.1709V39.1753Z" fill="#231F20"/>
<path d="M81.9271 39.1768H82.9116L85.5003 46.3715H84.485L83.8477 44.5432H80.9997L80.3625 46.3715H79.3472L81.9271 39.1768ZM83.5884 43.7081L82.4281 40.3459H82.4061L81.2634 43.7081H83.584H83.5884Z" fill="#231F20"/>
<path d="M87.0439 39.1768H88.0284V45.5189H91.6676V46.3715H87.0439V39.1768Z" fill="#231F20"/>
<path d="M93.7859 40.0294H91.6191V39.1768H96.9416V40.0294H94.7748V46.3715H93.7903V40.0294H93.7859Z" fill="#231F20"/>
<path d="M98.585 39.1768H99.5695V42.35H103.064V39.1768H104.048V46.3715H103.064V43.2158H99.5695V46.3715H98.585V39.1768Z" fill="#231F20"/>
<path d="M109.428 39.1768H110.417V45.5189H114.056V46.3715H109.432V39.1768H109.428Z" fill="#231F20"/>
<path d="M115.643 39.1753H120.473V40.0367H116.631V42.3266H120.178V43.1792H116.631V45.5042H120.473V46.3656H115.643V39.1709V39.1753Z" fill="#231F20"/>
<path d="M121.756 39.1768H122.776L124.802 45.1892H124.824L126.85 39.1768H127.869L125.32 46.3715H124.314L121.765 39.1768H121.756Z" fill="#231F20"/>
<path d="M129.457 39.1772H134.287V40.0387H130.445V42.3285H133.992V43.1812H130.445V45.5062H134.287V46.3676H129.457V39.1729V39.1772Z" fill="#231F20"/>
<path d="M136.136 39.1768H137.125V45.5189H140.764V46.3715H136.141V39.1768H136.136Z" fill="#231F20"/>
<path d="M142.043 45.3728V44.5905H143.019V45.052L143.459 45.5047H145.814L146.267 45.0432V43.5621L145.814 43.1226H143.059L142.061 42.1161V40.1735L143.059 39.1758H146.162L147.159 40.1735V40.9646H146.192V40.4943L145.74 40.0416H143.489L143.037 40.4943V41.8084L143.489 42.2611H146.245L147.243 43.2588V45.3553L146.223 46.3749H143.037L142.039 45.3772L142.043 45.3728Z" fill="#231F20"/>
<path d="M152.464 39.1768H153.449V46.3715H152.464V39.1768Z" fill="#231F20"/>
<path d="M155.66 39.1768H156.583L160.148 44.7453H160.169V39.1768H161.114V46.3715H160.191L156.627 40.8029H156.605V46.3715H155.66V39.1768Z" fill="#231F20"/>
<path d="M166.339 45.3738V44.5915H167.315V45.053L167.755 45.5057H170.11L170.563 45.0442V43.563L170.11 43.1235H167.355L166.357 42.1171V40.1744L167.355 39.1768H170.458L171.455 40.1744V40.9656H170.488V40.4953L170.036 40.0426H167.785L167.333 40.4953V41.8094L167.785 42.2621H170.541L171.539 43.2598V45.3562L170.519 46.3759H167.333L166.335 45.3782L166.339 45.3738Z" fill="#231F20"/>
<path d="M174.981 43.3916L172.462 39.1768H173.53L175.464 42.4863H175.486L177.42 39.1768H178.488L175.97 43.3916V46.3715H174.985V43.3916H174.981Z" fill="#231F20"/>
<path d="M185.256 44.1066V46.3656H184.268V44.3527L183.415 43.4385H180.958V46.3656H179.969V39.1709H184.215L185.213 40.1686V42.4101L184.421 43.2012L185.252 44.1066H185.256ZM180.963 42.5991H183.78L184.241 42.1464V40.4718L183.78 40.0191H180.963V42.5991Z" fill="#231F20"/>
<path d="M187.414 39.1768H188.399V46.3715H187.414V39.1768Z" fill="#231F20"/>
<path d="M192.574 39.1768H193.558L196.147 46.3715H195.127L194.49 44.5432H191.642L191.005 46.3715H189.985L192.565 39.1768H192.574ZM194.239 43.7081L193.079 40.3459H193.057L191.914 43.7081H194.235H194.239Z" fill="#231F20"/>
<path d="M69.6174 6.35742H72.1665L77.4274 20.7469H74.5926L73.4191 17.5605H68.3647L67.1913 20.7469H64.3564L69.6174 6.35742ZM72.8038 15.2575L70.8919 9.78998H70.8524L69.002 15.2575H72.8038Z" fill="#231F20"/>
<path d="M78.0474 6.35742H80.8426V12.3787H86.9254V6.35742H89.7207V20.7469H86.9254V14.7652H80.8426V20.7469H78.0474V6.35742Z" fill="#231F20"/>
<path d="M91.5708 6.35742H94.3661V18.3824H101.561V20.7469H91.5708V6.35742Z" fill="#231F20"/>
<path d="M106.739 18.5289V16.472H109.494V17.685L110.171 18.3619H114.426L115.125 17.663V15.2809L114.448 14.6041H109.002L106.783 12.3845V8.5828L109.002 6.36328H115.498L117.718 8.5828V10.6573H114.962V9.42226L114.285 8.74542H110.215L109.538 9.42226V11.5407L110.215 12.2175H115.661L117.88 14.437V18.4849L115.621 20.744H108.963L106.743 18.5245L106.739 18.5289Z" fill="#231F20"/>
<path d="M122.381 14.8663L117.265 6.35742H120.328L123.761 12.2556H123.8L127.233 6.35742H130.296L125.18 14.8663V20.7425H122.385V14.8663H122.381Z" fill="#231F20"/>
<path d="M142.11 15.9783V20.7469H139.315V16.6155L138.079 15.2399H133.601V20.7469H130.806V6.35742H139.829L142.026 8.57694V12.9325L140.629 14.3521L142.11 15.9739V15.9783ZM133.601 12.9369H138.554L139.275 12.2161V9.42079L138.554 8.7H133.601V12.9325V12.9369Z" fill="#231F20"/>
<path d="M143.96 6.35742H146.756V20.7469H143.96V6.35742Z" fill="#231F20"/>
<path d="M152.737 6.35742H155.286L160.547 20.7469H157.712L156.539 17.5605H151.484L150.311 20.7469H147.476L152.737 6.35742ZM155.923 15.2575L154.012 9.78998H153.972L152.122 15.2575H155.923Z" fill="#231F20"/>
</svg>
